<svg width="27" height="27" viewBox="0 0 27 27" fill="none" xmlns="http://www.w3.org/2000/svg">
<path d="M17.55 16.875H19.575C19.9125 16.875 20.25 16.5375 20.25 16.2V9.1125C20.25 8.775 19.9125 8.4375 19.575 8.4375H17.55C17.2125 8.4375 16.875 8.775 16.875 9.1125V16.2C16.875 16.5375 17.2125 16.875 17.55 16.875ZM22.6125 16.875H24.6375C24.975 16.875 25.3125 16.5375 25.3125 16.2V4.05C25.3125 3.7125 24.975 3.375 24.6375 3.375H22.6125C22.275 3.375 21.9375 3.7125 21.9375 4.05V16.2C21.9375 16.5375 22.275 16.875 22.6125 16.875ZM7.425 16.875H9.45C9.7875 16.875 10.125 16.5375 10.125 16.2V12.4875C10.125 12.15 9.7875 11.8125 9.45 11.8125H7.425C7.0875 11.8125 6.75 12.15 6.75 12.4875V16.2C6.75 16.5375 7.0875 16.875 7.425 16.875ZM12.4875 16.875H14.5125C14.85 16.875 15.1875 16.5375 15.1875 16.2V5.7375C15.1875 5.4 14.85 5.0625 14.5125 5.0625H12.4875C12.15 5.0625 11.8125 5.4 11.8125 5.7375V16.2C11.8125 16.5375 12.15 16.875 12.4875 16.875ZM26.1562 20.25H3.375V4.21875C3.375 3.75258 2.99742 3.375 2.53125 3.375H0.84375C0.377578 3.375 0 3.75258 0 4.21875V21.9375C0 22.8693 0.755684 23.625 1.6875 23.625H26.1562C26.6224 23.625 27 23.2474 27 22.7812V21.0938C27 20.6276 26.6224 20.25 26.1562 20.25Z" fill="#D98122"/>
</svg>
