<svg width="27" height="25" viewBox="0 0 27 25" fill="none" xmlns="http://www.w3.org/2000/svg">
<g clip-path="url(#clip0_6327_485)">
<path d="M26.1956 14.0625H14.4183L22.2617 21.7788C22.5615 22.0737 23.0548 22.0976 23.363 21.812C25.2838 20.0317 26.605 17.6318 26.9927 14.9341C27.0592 14.4722 26.6696 14.0625 26.1956 14.0625ZM25.4099 10.8984C25.0009 5.06542 20.263 0.404292 14.3339 0.00194874C13.8813 -0.028813 13.5001 0.346675 13.5001 0.792964V11.7187H24.6063C25.06 11.7187 25.4412 11.3437 25.4099 10.8984ZM11.1178 14.0625V2.47607C11.1178 2.00976 10.7013 1.62646 10.2323 1.69189C4.31763 2.51416 -0.203384 7.59765 0.007057 13.6899C0.223454 19.9468 5.69939 25.0776 12.0623 24.999C14.5637 24.9683 16.8751 24.1753 18.7755 22.8491C19.1676 22.5757 19.1934 22.0078 18.8535 21.6733L11.1178 14.0625Z" fill="#D98122"/>
</g>
<defs>
<clipPath id="clip0_6327_485">
<rect width="27" height="25" fill="white"/>
</clipPath>
</defs>
</svg>
