<svg width="26" height="26" viewBox="0 0 26 26" fill="none" xmlns="http://www.w3.org/2000/svg">
<path d="M13 0.40625C6.04297 0.40625 0.40625 6.04297 0.40625 13C0.40625 19.957 6.04297 25.5938 13 25.5938C19.957 25.5938 25.5938 19.957 25.5938 13C25.5938 6.04297 19.957 0.40625 13 0.40625ZM17.6968 16.3008L16.6811 17.5703C16.6145 17.6536 16.5321 17.723 16.4386 17.7745C16.3451 17.826 16.2424 17.8585 16.1364 17.8703C16.0303 17.8821 15.923 17.8729 15.8205 17.8432C15.718 17.8135 15.6224 17.7639 15.5391 17.6973L12.1367 15.1724C11.899 14.9821 11.7071 14.7407 11.5753 14.4662C11.4434 14.1917 11.375 13.8911 11.375 13.5865V5.6875C11.375 5.47201 11.4606 5.26535 11.613 5.11298C11.7653 4.9606 11.972 4.875 12.1875 4.875H13.8125C14.028 4.875 14.2347 4.9606 14.387 5.11298C14.5394 5.26535 14.625 5.47201 14.625 5.6875V13L17.5703 15.1582C17.6537 15.2249 17.7231 15.3074 17.7746 15.4009C17.826 15.4944 17.8586 15.5972 17.8703 15.7033C17.8821 15.8094 17.8728 15.9168 17.843 16.0193C17.8132 16.1218 17.7635 16.2175 17.6968 16.3008Z" fill="#D98122"/>
</svg>
