<svg width="16" height="18" viewBox="0 0 16 18" fill="none" xmlns="http://www.w3.org/2000/svg">
<path d="M14.2857 2.25H12.5714V0.421875C12.5714 0.189844 12.3786 0 12.1429 0H10.7143C10.4786 0 10.2857 0.189844 10.2857 0.421875V2.25H5.71429V0.421875C5.71429 0.189844 5.52143 0 5.28571 0H3.85714C3.62143 0 3.42857 0.189844 3.42857 0.421875V2.25H1.71429C0.767857 2.25 0 3.00586 0 3.9375V16.3125C0 17.2441 0.767857 18 1.71429 18H14.2857C15.2321 18 16 17.2441 16 16.3125V3.9375C16 3.00586 15.2321 2.25 14.2857 2.25ZM14.0714 16.3125H1.92857C1.81071 16.3125 1.71429 16.2176 1.71429 16.1016V5.625H14.2857V16.1016C14.2857 16.2176 14.1893 16.3125 14.0714 16.3125Z" fill="white"/>
</svg>
