<svg width="21" height="19" viewBox="0 0 21 19" fill="none" xmlns="http://www.w3.org/2000/svg">
<path d="M20.125 2.375H4.08333C3.32289 2.375 2.67447 2.87141 2.43367 3.5625H0.875C0.391745 3.5625 0 3.96124 0 4.45312V14.5469C0 15.6946 0.914083 16.625 2.04167 16.625H20.125C20.6083 16.625 21 16.2263 21 15.7344V3.26562C21 2.77374 20.6083 2.375 20.125 2.375ZM1.75 14.5469V5.34375H2.33333V14.5469C2.33333 14.7106 2.20248 14.8438 2.04167 14.8438C1.88085 14.8438 1.75 14.7106 1.75 14.5469ZM19.25 14.8438H4.06226C4.0759 14.7467 4.08333 14.6477 4.08333 14.5469V4.15625H19.25V14.8438ZM6.27083 10.3906H11.2292C11.4708 10.3906 11.6667 10.1912 11.6667 9.94531V6.38281C11.6667 6.13689 11.4708 5.9375 11.2292 5.9375H6.27083C6.02922 5.9375 5.83333 6.13689 5.83333 6.38281V9.94531C5.83333 10.1912 6.02922 10.3906 6.27083 10.3906ZM7.29167 7.42188H10.2083V8.90625H7.29167V7.42188ZM5.83333 12.6172V11.7266C5.83333 11.4806 6.02922 11.2812 6.27083 11.2812H11.2292C11.4708 11.2812 11.6667 11.4806 11.6667 11.7266V12.6172C11.6667 12.8631 11.4708 13.0625 11.2292 13.0625H6.27083C6.02922 13.0625 5.83333 12.8631 5.83333 12.6172ZM12.8333 12.6172V11.7266C12.8333 11.4806 13.0292 11.2812 13.2708 11.2812H17.0625C17.3041 11.2812 17.5 11.4806 17.5 11.7266V12.6172C17.5 12.8631 17.3041 13.0625 17.0625 13.0625H13.2708C13.0292 13.0625 12.8333 12.8631 12.8333 12.6172ZM12.8333 7.27344V6.38281C12.8333 6.13689 13.0292 5.9375 13.2708 5.9375H17.0625C17.3041 5.9375 17.5 6.13689 17.5 6.38281V7.27344C17.5 7.51936 17.3041 7.71875 17.0625 7.71875H13.2708C13.0292 7.71875 12.8333 7.51936 12.8333 7.27344ZM12.8333 9.94531V9.05469C12.8333 8.80876 13.0292 8.60938 13.2708 8.60938H17.0625C17.3041 8.60938 17.5 8.80876 17.5 9.05469V9.94531C17.5 10.1912 17.3041 10.3906 17.0625 10.3906H13.2708C13.0292 10.3906 12.8333 10.1912 12.8333 9.94531Z" fill="white"/>
</svg>
