<svg width="18" height="18" viewBox="0 0 18 18" fill="none" xmlns="http://www.w3.org/2000/svg">
<path d="M2.1716 14.0977L2.78684 13.3893C2.90928 13.2527 2.97328 13.0736 2.96508 12.8904V12.774C2.96508 12.5156 2.83008 12.375 2.56641 12.375H0.5625C0.487908 12.375 0.416371 12.4046 0.363626 12.4574C0.310882 12.5101 0.28125 12.5817 0.28125 12.6562V13.2188C0.28125 13.2933 0.310882 13.3649 0.363626 13.4176C0.416371 13.4704 0.487908 13.5 0.5625 13.5H1.36512C1.22873 13.6374 1.09965 13.7819 0.978398 13.9328L0.781172 14.1789C0.640547 14.3571 0.596602 14.535 0.682734 14.702L0.719648 14.7698C0.825117 14.9723 0.940781 15.0469 1.15031 15.0469H1.3166C1.67977 15.0469 1.87699 15.1327 1.87699 15.3664C1.87699 15.5324 1.72934 15.6554 1.37215 15.6554C1.18552 15.654 1.0009 15.6167 0.828281 15.5457C0.600117 15.4093 0.415547 15.4227 0.279844 15.6554L0.0833203 15.9827C-0.0474609 16.1982 -0.0288281 16.3948 0.175781 16.5431C0.446836 16.708 0.892266 16.875 1.47656 16.875C2.6775 16.875 3.18164 16.0752 3.18164 15.3239C3.18059 14.8184 2.86102 14.2777 2.1716 14.0977V14.0977ZM17.4375 7.875H6.1875C6.03832 7.875 5.89524 7.93426 5.78975 8.03975C5.68426 8.14524 5.625 8.28832 5.625 8.4375V9.5625C5.625 9.71168 5.68426 9.85476 5.78975 9.96025C5.89524 10.0657 6.03832 10.125 6.1875 10.125H17.4375C17.5867 10.125 17.7298 10.0657 17.8352 9.96025C17.9407 9.85476 18 9.71168 18 9.5625V8.4375C18 8.28832 17.9407 8.14524 17.8352 8.03975C17.7298 7.93426 17.5867 7.875 17.4375 7.875ZM17.4375 2.25H6.1875C6.03832 2.25 5.89524 2.30926 5.78975 2.41475C5.68426 2.52024 5.625 2.66332 5.625 2.8125V3.9375C5.625 4.08668 5.68426 4.22976 5.78975 4.33525C5.89524 4.44074 6.03832 4.5 6.1875 4.5H17.4375C17.5867 4.5 17.7298 4.44074 17.8352 4.33525C17.9407 4.22976 18 4.08668 18 3.9375V2.8125C18 2.66332 17.9407 2.52024 17.8352 2.41475C17.7298 2.30926 17.5867 2.25 17.4375 2.25V2.25ZM17.4375 13.5H6.1875C6.03832 13.5 5.89524 13.5593 5.78975 13.6648C5.68426 13.7702 5.625 13.9133 5.625 14.0625V15.1875C5.625 15.3367 5.68426 15.4798 5.78975 15.5852C5.89524 15.6907 6.03832 15.75 6.1875 15.75H17.4375C17.5867 15.75 17.7298 15.6907 17.8352 15.5852C17.9407 15.4798 18 15.3367 18 15.1875V14.0625C18 13.9133 17.9407 13.7702 17.8352 13.6648C17.7298 13.5593 17.5867 13.5 17.4375 13.5ZM0.5625 5.625H2.8125C2.88709 5.625 2.95863 5.59537 3.01137 5.54262C3.06412 5.48988 3.09375 5.41834 3.09375 5.34375V4.78125C3.09375 4.70666 3.06412 4.63512 3.01137 4.58238C2.95863 4.52963 2.88709 4.5 2.8125 4.5H2.25V1.40625C2.25 1.33166 2.22037 1.26012 2.16762 1.20738C2.11488 1.15463 2.04334 1.125 1.96875 1.125H1.125C1.07287 1.12509 1.02179 1.13967 0.977465 1.16711C0.93314 1.19455 0.897313 1.23377 0.873984 1.28039L0.592734 1.84289C0.571296 1.88573 0.561157 1.93334 0.563277 1.9812C0.565398 2.02906 0.579708 2.07558 0.60485 2.11636C0.629993 2.15714 0.665135 2.19082 0.706945 2.21421C0.748754 2.23759 0.795844 2.24991 0.84375 2.25H1.125V4.5H0.5625C0.487908 4.5 0.416371 4.52963 0.363626 4.58238C0.310882 4.63512 0.28125 4.70666 0.28125 4.78125V5.34375C0.28125 5.41834 0.310882 5.48988 0.363626 5.54262C0.416371 5.59537 0.487908 5.625 0.5625 5.625ZM0.425039 11.25H2.8125C2.88709 11.25 2.95863 11.2204 3.01137 11.1676C3.06412 11.1149 3.09375 11.0433 3.09375 10.9688V10.4062C3.09375 10.3317 3.06412 10.2601 3.01137 10.2074C2.95863 10.1546 2.88709 10.125 2.8125 10.125H1.45266C1.56832 9.76324 3.15211 9.46828 3.15211 8.14078C3.15211 7.11914 2.2732 6.75 1.58871 6.75C0.837773 6.75 0.40043 7.10156 0.166289 7.40918C0.0126563 7.6057 0.0608203 7.79027 0.264727 7.94953L0.566367 8.19141C0.763594 8.35172 0.953086 8.27824 1.13309 8.10562C1.22187 8.01863 1.34136 7.97013 1.46566 7.97063C1.58273 7.97063 1.79191 8.02547 1.79191 8.27824C1.79297 8.72543 0 9.04605 0 10.7082V10.8489C0 11.1094 0.178594 11.25 0.425039 11.25Z" fill="white"/>
</svg>
